<svg xmlns="http://www.w3.org/2000/svg" viewBox="0 0 888 220" font-family="Helvetica,Arial,sans-serif">
<defs><marker id="a" markerWidth="9" markerHeight="9" refX="7" refY="3" orient="auto"><path d="M0,0 L7,3 L0,6 Z" fill="#64748B"/></marker></defs>
<rect x="0" y="0" width="888" height="220" fill="#FFFFFF"/>
<text x="444" y="34" text-anchor="middle" font-size="18" font-weight="700" fill="#0F172A">x402 Paywall — fix the gate, earn the flag</text>
<rect x="24" y="86" width="168" height="70" rx="8" fill="#F8FAFC" stroke="#475569" stroke-width="2"/>
<rect x="24" y="86" width="168" height="26" rx="8" fill="#475569"/>
<rect x="24" y="104" width="168" height="8" fill="#475569"/>
<text x="108" y="104" text-anchor="middle" font-size="12.5" font-weight="700" fill="#FFFFFF">Bot client</text>
<text x="108" y="132" text-anchor="middle" font-size="10.5" fill="#334155">x402 payment</text>
<rect x="248" y="86" width="168" height="70" rx="8" fill="#F8FAFC" stroke="#7AA116" stroke-width="2"/>
<rect x="248" y="86" width="168" height="26" rx="8" fill="#7AA116"/>
<rect x="248" y="104" width="168" height="8" fill="#7AA116"/>
<text x="332" y="104" text-anchor="middle" font-size="12.5" font-weight="700" fill="#FFFFFF">S3</text>
<text x="332" y="132" text-anchor="middle" font-size="10.5" fill="#334155">check_x402.sh</text>
<text x="332" y="147" text-anchor="middle" font-size="10.5" fill="#334155">(download)</text>
<rect x="472" y="86" width="168" height="70" rx="8" fill="#F8FAFC" stroke="#ED7100" stroke-width="2"/>
<rect x="472" y="86" width="168" height="26" rx="8" fill="#ED7100"/>
<rect x="472" y="104" width="168" height="8" fill="#ED7100"/>
<text x="556" y="104" text-anchor="middle" font-size="12.5" font-weight="700" fill="#FFFFFF">Lambda gate</text>
<text x="556" y="132" text-anchor="middle" font-size="10.5" fill="#334155">verifies payment</text>
<text x="556" y="147" text-anchor="middle" font-size="10.5" fill="#334155">returns flag</text>
<rect x="696" y="86" width="168" height="70" rx="8" fill="#F8FAFC" stroke="#16A34A" stroke-width="2"/>
<rect x="696" y="86" width="168" height="26" rx="8" fill="#16A34A"/>
<rect x="696" y="104" width="168" height="8" fill="#16A34A"/>
<text x="780" y="104" text-anchor="middle" font-size="12.5" font-weight="700" fill="#FFFFFF">Flag</text>
<text x="780" y="132" text-anchor="middle" font-size="10.5" fill="#334155">TC{…}</text>
<line x1="192" y1="121" x2="245" y2="121" stroke="#64748B" stroke-width="2" marker-end="url(#a)"/>
<text x="220" y="114" text-anchor="middle" font-size="9.5" fill="#7C3AED">pays</text>
<line x1="416" y1="121" x2="469" y2="121" stroke="#64748B" stroke-width="2" marker-end="url(#a)"/>
<text x="444" y="114" text-anchor="middle" font-size="9.5" fill="#7C3AED">invoke</text>
<line x1="640" y1="121" x2="693" y2="121" stroke="#64748B" stroke-width="2" marker-end="url(#a)"/>
<text x="668" y="114" text-anchor="middle" font-size="9.5" fill="#7C3AED">on success</text>
<text x="444" y="198" text-anchor="middle" font-size="11" fill="#475569">Fix the gate misconfiguration so a verified test payment returns the flag.</text>
</svg>
